<svg width="21" height="21" viewBox="0 0 21 21" fill="none" xmlns="http://www.w3.org/2000/svg">
<path d="M1 1H4.5L6.845 12.7163C6.92501 13.1191 7.14417 13.481 7.4641 13.7385C7.78404 13.9961 8.18436 14.1329 8.595 14.125H17.1C17.5106 14.1329 17.911 13.9961 18.2309 13.7385C18.5508 13.481 18.77 13.1191 18.85 12.7163L20.25 5.375H5.375M8.875 18.5C8.875 18.9832 8.48325 19.375 8 19.375C7.51675 19.375 7.125 18.9832 7.125 18.5C7.125 18.0168 7.51675 17.625 8 17.625C8.48325 17.625 8.875 18.0168 8.875 18.5ZM18.5 18.5C18.5 18.9832 18.1082 19.375 17.625 19.375C17.1418 19.375 16.75 18.9832 16.75 18.5C16.75 18.0168 17.1418 17.625 17.625 17.625C18.1082 17.625 18.5 18.0168 18.5 18.5Z" stroke="white" stroke-width="1.43" stroke-linecap="round" stroke-linejoin="round"/>
</svg>
