<svg width="21" height="23" viewBox="0 0 21 23" fill="none" xmlns="http://www.w3.org/2000/svg">
<path d="M1.19824 5.56765L4.22324 1.53432H16.3232L19.3482 5.56765M1.19824 5.56765V19.6843C1.19824 20.2192 1.41071 20.7321 1.78891 21.1103C2.16711 21.4885 2.68006 21.701 3.21491 21.701H17.3316C17.8664 21.701 18.3794 21.4885 18.7576 21.1103C19.1358 20.7321 19.3482 20.2192 19.3482 19.6843V5.56765M1.19824 5.56765H19.3482M14.3066 9.60098C14.3066 10.6707 13.8816 11.6966 13.1252 12.453C12.3688 13.2094 11.3429 13.6343 10.2732 13.6343C9.20353 13.6343 8.17764 13.2094 7.42124 12.453C6.66485 11.6966 6.23991 10.6707 6.23991 9.60098" stroke="white" stroke-width="2.01667" stroke-linecap="round" stroke-linejoin="round"/>
</svg>
