<svg width="23" height="24" viewBox="0 0 23 24" fill="none" xmlns="http://www.w3.org/2000/svg">
<path d="M17.556 4.62231C16.8109 4.62231 16.2114 5.22179 16.2114 5.96685C16.2114 6.71191 16.8109 7.31138 17.556 7.31138C18.301 7.31138 18.9005 6.71191 18.9005 5.96685C18.9005 5.22179 18.301 4.62231 17.556 4.62231Z" fill="#ED872D"/>
<path d="M11.5706 6.35303C8.45337 6.35303 5.91846 8.88794 5.91846 12.0052C5.91846 15.1225 8.45337 17.6574 11.5706 17.6574C14.6879 17.6574 17.2228 15.1225 17.2228 12.0052C17.2228 8.88794 14.6879 6.35303 11.5706 6.35303ZM11.5706 15.6192C9.57524 15.6192 7.9481 13.992 7.9481 11.9966C7.9481 10.0012 9.57524 8.37411 11.5706 8.37411C13.566 8.37411 15.1932 10.0012 15.1932 11.9966C15.1932 13.992 13.566 15.6192 11.5706 15.6192Z" fill="#ED872D"/>
<path d="M16.0573 23.48H6.89394C3.09157 23.48 0 20.3884 0 16.586V7.42265C0 3.62027 3.09157 0.520142 6.89394 0.520142H16.0573C19.8597 0.520142 22.9513 3.61171 22.9513 7.41408V16.5775C22.9513 20.3798 19.8597 23.4714 16.0573 23.4714V23.48ZM6.89394 2.68681C4.28195 2.68681 2.1581 4.81066 2.1581 7.42265V16.586C2.1581 19.198 4.28195 21.3219 6.89394 21.3219H16.0573C18.6693 21.3219 20.7931 19.198 20.7931 16.586V7.42265C20.7931 4.81066 18.6693 2.68681 16.0573 2.68681H6.89394Z" fill="#ED872D"/>
</svg>
