<svg width="18" height="18" viewBox="0 0 18 18" fill="none" xmlns="http://www.w3.org/2000/svg">
<path d="M0.606097 6.16537H4.11729V17.4355H0.606097V6.16537ZM2.3617 0.564575C3.48357 0.564575 4.39134 1.47235 4.39134 2.59422C4.39134 3.71609 3.48357 4.62386 2.3617 4.62386C1.23983 4.62386 0.323486 3.71609 0.323486 2.59422C0.323486 1.47235 1.23126 0.564575 2.3617 0.564575Z" fill="#ED872D"/>
<path d="M6.31813 6.16493H9.67518V7.70643H9.718C10.189 6.81579 11.328 5.88232 13.0322 5.88232C16.5777 5.88232 17.2371 8.2117 17.2371 11.2519V17.435H13.7345V11.9541C13.7345 10.6439 13.7088 8.96533 11.9104 8.96533C10.1119 8.96533 9.8122 10.3869 9.8122 11.8599V17.435H6.30957V6.16493H6.31813Z" fill="#ED872D"/>
</svg>
