<svg width="11" height="16" viewBox="0 0 11 16" fill="none" xmlns="http://www.w3.org/2000/svg">
<path d="M5.35294 15.2941C5.17451 15.2941 5.02157 15.2431 4.89412 15.1412C4.76667 15.0392 4.67108 14.9054 4.60735 14.7397C4.3652 14.026 4.05931 13.3569 3.68971 12.7324C3.33284 12.1078 2.82941 11.375 2.17941 10.5338C1.52941 9.69265 1.00049 8.88971 0.592647 8.125C0.197549 7.36029 0 6.43627 0 5.35294C0 3.86176 0.516176 2.6 1.54853 1.56765C2.59363 0.522549 3.86177 0 5.35294 0C6.84412 0 8.10588 0.522549 9.13824 1.56765C10.1833 2.6 10.7059 3.86176 10.7059 5.35294C10.7059 6.51274 10.4828 7.48137 10.0368 8.25882C9.60343 9.02353 9.1 9.78186 8.52647 10.5338C7.83824 11.4515 7.31569 12.2162 6.95882 12.8279C6.61471 13.427 6.32794 14.0642 6.09853 14.7397C6.0348 14.9181 5.93284 15.0583 5.79265 15.1603C5.6652 15.2495 5.51863 15.2941 5.35294 15.2941ZM5.35294 7.26471C5.88824 7.26471 6.34069 7.0799 6.71029 6.71029C7.0799 6.34069 7.26471 5.88824 7.26471 5.35294C7.26471 4.81765 7.0799 4.3652 6.71029 3.99559C6.34069 3.62598 5.88824 3.44118 5.35294 3.44118C4.81765 3.44118 4.3652 3.62598 3.99559 3.99559C3.62598 4.3652 3.44118 4.81765 3.44118 5.35294C3.44118 5.88824 3.62598 6.34069 3.99559 6.71029C4.3652 7.0799 4.81765 7.26471 5.35294 7.26471Z" fill="#ED872D"/>
</svg>
