<svg width="194" height="59" viewBox="0 0 194 59" fill="none" xmlns="http://www.w3.org/2000/svg">
<g clip-path="url(#clip0_1_1641)">
<path d="M30.1732 15.4324C29.3335 15.4324 28.5486 15.5416 27.8915 15.76C27.2161 15.9784 26.632 16.2696 26.1209 16.6154C25.6098 16.9793 25.1717 17.3797 24.8066 17.8529C24.4416 18.326 24.1312 18.8174 23.9122 19.327C23.6932 19.8365 23.5106 20.3643 23.4011 20.892C23.2916 21.4198 23.2368 21.9112 23.2368 22.3661V36.1425C23.2368 36.9978 23.3463 37.7622 23.5654 38.4355C23.7844 39.1089 24.0765 39.7094 24.4233 40.219C24.7884 40.7286 25.19 41.1653 25.6646 41.5293C26.1392 41.8933 26.632 42.1845 27.1431 42.4028C27.6542 42.6394 28.1836 42.8032 28.7129 42.9124C29.2423 43.0216 29.7351 43.0762 30.1915 43.0762H48.5912C48.9197 43.0762 49.2483 43.0216 49.5221 42.8942C49.8142 42.785 50.0515 42.603 50.2705 42.4028C50.4713 42.2027 50.6356 41.9479 50.7633 41.6567C50.8911 41.3655 50.9459 41.0561 50.9459 40.7286V29.2634C50.9459 28.9358 50.8911 28.6447 50.7633 28.3535C50.6356 28.0805 50.4713 27.8257 50.2705 27.6073C50.0697 27.389 49.8142 27.2252 49.5221 27.0978C49.23 26.9704 48.9197 26.9158 48.5912 26.9158H32.7105V31.5928H46.2912V38.4173H30.1915C29.4796 38.4173 28.9137 38.2171 28.5121 37.8168C28.1105 37.4164 27.9098 36.8523 27.9098 36.1425V22.4207C27.9098 21.6746 28.1105 21.0922 28.5121 20.6919C28.9137 20.2915 29.4796 20.0913 30.1915 20.0913H50.7086V15.4506H30.1732V15.4324Z" fill="white"/>
<path d="M62.4823 22.3479C61.241 22.3479 60.1823 22.5845 59.3244 23.0213C58.4665 23.4763 57.7546 24.0404 57.2252 24.7138C56.6958 25.3871 56.2943 26.1333 56.057 26.9158C55.8197 27.6983 55.6919 28.4445 55.6919 29.136V36.2699C55.6919 37.5074 55.9292 38.5629 56.3673 39.4183C56.8236 40.2736 57.3895 40.9833 58.0649 41.5111C58.7403 42.0389 59.4887 42.4392 60.2736 42.6758C61.0585 42.9124 61.8069 43.0398 62.5005 43.0398H71.4813V38.6357H62.537C61.8616 38.6357 61.2775 38.4173 60.8029 38.017C60.3283 37.5984 60.091 37.016 60.091 36.2699V29.1724C60.091 28.4991 60.3101 27.9167 60.7117 27.4436C61.1315 26.9704 61.7339 26.7338 62.4823 26.7338H71.6821C72.3392 26.7338 72.9051 26.9522 73.3614 27.3526C73.836 27.7711 74.0733 28.3535 74.0733 29.0814C74.0733 29.8094 73.8543 30.3371 73.4527 30.8103C73.0329 31.2835 72.4305 31.5201 71.6821 31.5201H62.7013V35.9059H71.6821C72.9234 35.9059 73.9821 35.6693 74.84 35.2326C75.6979 34.7776 76.4098 34.2135 76.9392 33.5401C77.4685 32.8668 77.8701 32.1206 78.1074 31.3381C78.3447 30.5555 78.4725 29.8094 78.4725 29.1178C78.4725 27.8803 78.2352 26.8248 77.7971 25.9695C77.3407 25.1141 76.7749 24.4044 76.0995 23.8766C75.4241 23.3489 74.6757 22.9485 73.8908 22.7119C73.1059 22.4753 72.3575 22.3479 71.6639 22.3479H62.464H62.4823Z" fill="white"/>
<path d="M88.731 22.3479C87.4898 22.3479 86.4311 22.5845 85.5732 23.0213C84.7152 23.4763 84.0033 24.0404 83.474 24.7138C82.9446 25.3871 82.543 26.1333 82.3057 26.9158C82.0684 27.6983 81.9407 28.4445 81.9407 29.136V36.2699C81.9407 37.5074 82.178 38.5629 82.6161 39.4183C83.0724 40.2736 83.6383 40.9833 84.3137 41.5111C84.989 42.0389 85.7374 42.4392 86.5223 42.6758C87.3073 42.9124 88.0557 43.0398 88.7493 43.0398H97.7301V38.6357H88.7858C88.1104 38.6357 87.5263 38.4173 87.0517 38.017C86.5771 37.5984 86.3398 37.016 86.3398 36.2699V29.1724C86.3398 28.4991 86.5589 27.9167 86.9604 27.4436C87.3803 26.9704 87.9826 26.7338 88.731 26.7338H97.9309C98.588 26.7338 99.1539 26.9522 99.6102 27.3526C100.085 27.7711 100.322 28.3535 100.322 29.0814C100.322 29.8094 100.103 30.3371 99.7015 30.8103C99.2817 31.2835 98.6793 31.5201 97.9309 31.5201H88.9501V35.9059H97.9309C99.1721 35.9059 100.231 35.6693 101.089 35.2326C101.947 34.7776 102.659 34.2135 103.188 33.5401C103.717 32.8668 104.119 32.1206 104.356 31.3381C104.593 30.5555 104.721 29.8094 104.721 29.1178C104.721 27.8803 104.484 26.8248 104.046 25.9695C103.59 25.1141 103.024 24.4044 102.348 23.8766C101.673 23.3489 100.924 22.9485 100.14 22.7119C99.3547 22.4753 98.6063 22.3479 97.9126 22.3479H88.7128H88.731Z" fill="white"/>
<path d="M126.042 43.0398H132.759L120.967 31.702L132.686 22.2933H125.238L115.984 29.7366C115.728 29.9368 115.509 30.1916 115.363 30.4827C115.217 30.7739 115.126 31.0833 115.108 31.4291C115.071 32.1388 115.308 32.7212 115.838 33.2125L126.06 43.058L126.042 43.0398Z" fill="white"/>
<path d="M113.337 13.3942H108.682V43.0398H113.337V13.3942Z" fill="white"/>
<path d="M165.159 21.9294C164.593 20.5281 163.772 19.2906 162.75 18.2896C161.727 17.2705 160.504 16.4698 159.099 15.9056C157.693 15.3415 156.16 15.0503 154.499 15.0503H147.599C145.956 15.0503 144.405 15.3415 142.999 15.9056C141.594 16.4698 140.371 17.2887 139.348 18.2896C138.326 19.3088 137.523 20.5281 136.939 21.9294C136.355 23.3307 136.063 24.8957 136.063 26.5518V31.9022C136.063 33.5765 136.355 35.1234 136.939 36.5247C137.523 37.926 138.326 39.1453 139.348 40.1644C140.371 41.1835 141.594 41.9843 142.999 42.5484C144.405 43.1126 145.956 43.4038 147.599 43.4038H154.499C156.142 43.4038 157.693 43.1126 159.099 42.5484C160.504 41.9843 161.727 41.1835 162.75 40.1644C163.772 39.1453 164.575 37.926 165.159 36.5247C165.725 35.1234 166.017 33.5583 166.017 31.9022V26.5518C166.017 24.8957 165.725 23.3307 165.159 21.9294ZM161.381 31.9204C161.381 32.9395 161.216 33.8859 160.888 34.723C160.559 35.5601 160.085 36.2881 159.482 36.8886C158.88 37.4892 158.15 37.9624 157.292 38.2899C156.452 38.6175 155.503 38.7813 154.499 38.7813H147.636C146.613 38.7813 145.682 38.6175 144.843 38.2899C144.003 37.9624 143.273 37.4892 142.652 36.8886C142.05 36.2881 141.575 35.5601 141.247 34.723C140.918 33.8859 140.754 32.9395 140.754 31.9204V26.57C140.754 25.5509 140.918 24.6046 141.247 23.7674C141.575 22.9303 142.05 22.2023 142.652 21.6018C143.255 21.0012 144.003 20.5281 144.843 20.2005C145.682 19.8729 146.632 19.7091 147.636 19.7091H154.535C155.539 19.7091 156.47 19.8729 157.31 20.2005C158.15 20.5281 158.88 21.0012 159.482 21.6018C160.085 22.2023 160.559 22.9303 160.888 23.7674C161.216 24.6046 161.381 25.5509 161.381 26.57V31.9204Z" fill="#ED872D"/>
<path d="M189.345 43.0398H194V31.5201C194 30.4099 193.854 29.3908 193.58 28.4991C193.306 27.6073 192.923 26.8248 192.448 26.1515C191.974 25.4781 191.426 24.8957 190.806 24.4226C190.185 23.9494 189.528 23.549 188.852 23.2397C188.177 22.9303 187.483 22.6937 186.79 22.5663C186.096 22.4207 185.421 22.3479 184.8 22.3479H173.3C172.972 22.3479 172.661 22.4025 172.388 22.5299C172.096 22.6573 171.84 22.8211 171.639 23.0213C171.42 23.2215 171.256 23.4763 171.146 23.7492C171.037 24.0222 170.964 24.3316 170.964 24.6592V43.058H175.619V27.0068H184.764C185.403 27.0068 186.005 27.116 186.553 27.3162C187.1 27.5346 187.593 27.8439 188.013 28.2261C188.433 28.6265 188.761 29.0996 188.999 29.6638C189.236 30.2098 189.364 30.8467 189.364 31.5383V43.058H189.345V43.0398Z" fill="#ED872D"/>
<path d="M10.3315 34.0315L10.149 32.2116L10.0029 32.1024C9.8569 32.2298 9.67436 32.3026 9.49183 32.339H9.43707C9.21802 32.3754 9.01723 32.339 8.85295 32.248L9.05374 34.0679C8.41486 34.3772 7.99503 35.0506 8.06804 35.7785L11.445 35.4328C11.3902 34.7776 10.9339 34.2498 10.3498 34.0315" fill="#ED872D"/>
<path d="M14.4568 33.5037L14.2561 31.6656C14.11 31.793 13.9092 31.8658 13.7084 31.884H13.6537C13.4529 31.9022 13.2521 31.8658 13.0878 31.7748L12.9783 31.9204L13.1791 33.7403C12.6497 34.0679 12.3394 34.6866 12.4124 35.3418L15.7894 34.996C15.7163 34.2498 15.1687 33.6857 14.4751 33.5219" fill="#ED872D"/>
<path d="M8.46973 29.0086L8.61576 30.3371C8.76179 30.2279 8.92607 30.1551 9.1086 30.1369C9.40066 30.0824 9.69272 30.1551 9.93002 30.3189L9.72923 28.8812L8.48798 29.0086H8.46973Z" fill="#ED872D"/>
<path d="M12.7776 28.5537L12.8689 29.9914C13.0696 29.7912 13.3252 29.6638 13.6355 29.6456C13.818 29.6456 14.0188 29.682 14.1649 29.7366L14.0188 28.4081L12.7776 28.5355V28.5537Z" fill="#ED872D"/>
<path d="M8.74351 21.7474L6.42529 22.0022L6.64434 23.2943L7.57527 28.6993L14.7307 27.9531L14.5117 22.4571L14.4569 21.1468L12.1569 21.3834L8.74351 21.7474Z" fill="#ED872D"/>
<path d="M6.51652 11.6289C6.57128 12.2295 6.13319 12.7754 5.53082 12.83C4.9102 12.8846 4.38084 12.4661 4.32608 11.8473C4.27132 11.2468 4.69116 10.7008 5.31178 10.6462C5.91415 10.5916 6.46176 11.0284 6.51652 11.6289Z" fill="#ED872D"/>
<path d="M14.402 10.81C14.4568 11.4106 14.0187 11.9565 13.4163 12.0111C12.8139 12.0657 12.2663 11.6471 12.2116 11.0284C12.1386 10.4278 12.5766 9.88187 13.179 9.82727C13.7814 9.77267 14.329 10.2094 14.3838 10.81" fill="#ED872D"/>
<path d="M16.5377 5.42306L13.3068 5.76883C12.814 5.22287 11.4267 4.8953 9.72912 4.8953L8.81644 4.94989H8.57914C8.17756 4.02176 6.73552 1.21917 4.12524 0.764204C3.83318 0.254642 3.28557 -0.0547344 2.66495 -0.00013852C1.84353 0.0908547 1.24116 0.836999 1.33243 1.65594C1.4237 2.47488 2.15385 3.07543 2.99352 2.98444C3.68715 2.91164 4.21651 2.36568 4.32603 1.71053C6.11489 2.23829 7.22837 4.20375 7.66645 5.11368C6.00537 5.44126 4.72761 6.06001 4.34429 6.69696L1.11339 7.04274C-2.06275 7.37031 2.55543 20.6735 2.55543 20.6735L17.998 19.0538C17.998 19.0538 19.7504 5.07728 16.556 5.40486M2.99352 11.9928C2.84749 10.6643 3.81493 9.46316 5.14745 9.33576C6.49822 9.19018 7.68471 10.1729 7.83074 11.4832C7.97677 12.8117 7.00932 14.0128 5.65855 14.1584C4.32603 14.304 3.13954 13.3213 2.99352 11.9928ZM12.8505 17.1794L7.15535 17.7799L6.97282 15.9965L12.668 15.3959L12.8505 17.1794ZM13.5624 13.3395C12.2299 13.4851 11.0251 12.5023 10.8791 11.1738C10.7331 9.84533 11.7188 8.64422 13.0513 8.51683C14.3838 8.37124 15.5885 9.35396 15.7163 10.6643C15.8624 11.9928 14.8949 13.1939 13.5624 13.3395Z" fill="#ED872D"/>
<path d="M18.3997 28.0441V27.9167C18.3632 27.5891 18.0711 27.3526 17.7426 27.389H17.6513L17.4323 25.2779C17.268 25.4417 17.0489 25.5509 16.8116 25.5691H16.7569C16.5561 25.5691 16.3553 25.5327 16.191 25.4599L16.1362 25.5145L16.3553 27.5345H16.264C15.9355 27.5709 15.6982 27.8621 15.7347 28.1897V28.3171L15.8077 29.0268C15.8442 29.2998 16.0815 29.4818 16.337 29.4636C16.5926 29.4272 16.7934 29.1906 16.7569 28.9358V28.6811L17.5053 28.6083V28.863C17.56 29.136 17.7973 29.318 18.0529 29.2816C18.3267 29.2634 18.5092 29.0268 18.491 28.7538L18.418 28.0259L18.3997 28.0441Z" fill="#ED872D"/>
<path d="M14.8585 22.6391C15.1688 22.8575 15.5521 23.2397 15.7894 23.7492C15.9902 23.4944 16.2823 23.3489 16.6108 23.3307C16.7751 23.3307 16.9394 23.3489 17.0854 23.4035C16.6473 22.3297 15.6069 21.3834 14.8037 21.1286L14.8767 22.6209L14.8585 22.6391Z" fill="#ED872D"/>
<path d="M17.3775 24.3316C17.414 24.732 17.1402 25.0777 16.7386 25.1323C16.337 25.1687 15.9902 24.8775 15.9537 24.4954C15.9172 24.095 16.191 23.7492 16.5926 23.7128C16.9942 23.6764 17.341 23.9494 17.3957 24.3498" fill="#ED872D"/>
<path d="M6.07852 22.0568C5.34838 22.4753 4.52696 23.6036 4.32617 24.7502C4.45395 24.6774 4.59998 24.6046 4.76426 24.5864C5.11108 24.5318 5.42139 24.6228 5.65869 24.8229C5.78647 24.277 6.07852 23.8038 6.33408 23.5308L6.09678 22.0568H6.07852Z" fill="#ED872D"/>
<path d="M4.07045 30.2825C4.0887 30.5373 4.326 30.7375 4.5998 30.7011C4.85535 30.6829 5.05615 30.4463 5.01964 30.1733L4.98313 29.9186L5.76804 29.8276V30.0823C5.8228 30.3553 6.0601 30.5373 6.31565 30.5191C6.5712 30.4827 6.77199 30.2461 6.73548 29.9914L6.66247 29.2816C6.66247 29.2452 6.66247 29.2088 6.62596 29.1724C6.58945 28.8266 6.29739 28.6083 5.96883 28.6447H5.87756L5.65852 26.6246L5.60376 26.5882C5.45773 26.6974 5.29344 26.7884 5.0744 26.8248H5.01964C4.76409 26.8612 4.54504 26.8066 4.34425 26.6792L4.5633 28.7902H4.47203C4.14346 28.8266 3.90616 29.1178 3.94267 29.4454V29.5728L4.01569 30.3007H4.07045V30.2825Z" fill="#ED872D"/>
<path d="M5.65849 25.5691C5.695 25.9695 5.40294 26.3152 5.01961 26.3516C4.61803 26.388 4.27121 26.0969 4.2347 25.7147C4.1982 25.3143 4.472 24.9685 4.87358 24.9139C5.27516 24.8775 5.62198 25.1687 5.67674 25.5509" fill="#ED872D"/>
<path d="M9.98468 31.1561C10.0212 31.5564 9.72912 31.9022 9.3458 31.9568C8.94422 31.9932 8.5974 31.702 8.54264 31.3199C8.50613 30.9195 8.79819 30.5737 9.18151 30.5373C9.58309 30.5009 9.92991 30.7739 9.98468 31.1743" fill="#ED872D"/>
<path d="M14.3291 30.7011C14.3657 31.1015 14.0736 31.4473 13.6903 31.5019C13.2887 31.5383 12.9419 31.2471 12.9054 30.8649C12.8689 30.4645 13.1427 30.1188 13.5442 30.0824C13.9458 30.046 14.2926 30.3371 14.3474 30.7193" fill="#ED872D"/>
<path d="M41.2897 51.6114L43.3889 57.1983L45.488 51.6114H47.1309V58.8908H45.8531V56.4886L45.9809 53.2856L43.827 58.909H42.9143L40.7603 53.2856L40.8881 56.4886V58.8908H39.6104V51.6114H41.2532H41.2897Z" fill="white"/>
<path d="M56.5498 55.4513C56.5498 56.161 56.4221 56.798 56.1848 57.3257C55.9475 57.8535 55.5824 58.2721 55.1261 58.5632C54.6697 58.8544 54.1403 58.9818 53.538 58.9818C52.9356 58.9818 52.4245 58.8544 51.9499 58.5632C51.4936 58.2721 51.1285 57.8717 50.8912 57.3257C50.6174 56.798 50.5261 56.1792 50.5261 55.4695V55.0509C50.5261 54.3412 50.6539 53.7042 50.8912 53.1764C51.165 52.6123 51.4936 52.2301 51.9499 51.9389C52.4063 51.6478 52.9356 51.5204 53.538 51.5204C54.1403 51.5204 54.6515 51.6478 55.1261 51.9389C55.5824 52.2301 55.9475 52.6305 56.1848 53.1764C56.4221 53.7224 56.5498 54.3412 56.5498 55.0509V55.4513ZM55.2721 55.0509C55.2721 54.232 55.1078 53.6132 54.8157 53.1946C54.5237 52.7761 54.0673 52.5577 53.5197 52.5577C52.9721 52.5577 52.534 52.7761 52.2237 53.1946C51.9134 53.6132 51.7491 54.232 51.7491 55.0145V55.4331C51.7491 56.2338 51.9134 56.8708 52.2237 57.2893C52.534 57.7443 52.9721 57.9445 53.5197 57.9445C54.0673 57.9445 54.5054 57.7261 54.8157 57.3075C55.1078 56.889 55.2721 56.252 55.2721 55.4331V55.0691V55.0509Z" fill="white"/>
<path d="M59.872 58.8908V51.6114H62.3728C63.1942 51.6114 63.8331 51.7751 64.2529 52.1209C64.6727 52.4667 64.8918 52.9399 64.8918 53.6132C64.8918 54.2866 64.8188 54.2502 64.618 54.5231C64.4172 54.7961 64.1616 54.9963 63.8148 55.1237C64.2164 55.2329 64.5084 55.4331 64.7457 55.7242C64.983 56.0154 65.0561 56.3794 65.0561 56.7798C65.0561 57.4713 64.837 57.9991 64.3989 58.363C63.9608 58.727 63.3402 58.9272 62.5188 58.9272H59.8538L59.872 58.8908ZM61.1315 54.6869H62.3728C62.7743 54.6869 63.0847 54.6141 63.3037 54.4139C63.5227 54.2138 63.6505 53.9954 63.6505 53.6496C63.6505 53.3038 63.541 53.049 63.3402 52.8489C63.1394 52.6487 62.8109 52.6123 62.391 52.6123H61.1498V54.6505L61.1315 54.6869ZM61.1315 55.5969V57.8717H62.5371C62.9386 57.8717 63.2489 57.7625 63.468 57.5805C63.687 57.3985 63.8148 57.1073 63.8148 56.7616C63.8148 55.9972 63.4132 55.6151 62.6466 55.5969H61.1315Z" fill="white"/>
<path d="M69.7836 58.8908H68.5059V51.6114H69.7836V58.8908Z" fill="white"/>
<path d="M74.6757 57.8899H77.9979V58.8908H73.3979V51.6114H74.6757V57.8899Z" fill="white"/>
<path d="M85.2994 55.6333H82.2875V57.8899H85.7922V58.8908H81.0098V51.6114H85.774V52.6487H82.2875V54.6687H85.2994V55.6696V55.6333Z" fill="white"/>
<path d="M97.3466 57.0163C97.3466 56.707 97.2371 56.4522 96.9998 56.2702C96.7625 56.0882 96.3609 55.9244 95.7768 55.7424C95.1927 55.5605 94.7181 55.3785 94.3713 55.1601C93.7141 54.7415 93.3673 54.2138 93.3673 53.5222C93.3673 52.8307 93.6046 52.4667 94.0792 52.0663C94.5538 51.7023 95.1927 51.484 95.9411 51.484C96.6895 51.484 96.8903 51.5932 97.2918 51.7751C97.6934 51.9571 98.0037 52.2301 98.2228 52.5759C98.4601 52.9217 98.5696 53.322 98.5696 53.7224H97.2918C97.2918 53.3584 97.1641 53.0309 96.9268 52.8125C96.6895 52.5941 96.3427 52.5031 95.8863 52.5031C95.43 52.5031 95.1379 52.5759 94.9371 52.7761C94.6998 52.9581 94.5903 53.1946 94.5903 53.5222C94.5903 53.8498 94.7181 54.0318 94.9554 54.1774C95.1927 54.3594 95.6125 54.5231 96.1784 54.7051C96.7442 54.8689 97.2188 55.0691 97.5657 55.2875C97.9125 55.5059 98.168 55.7424 98.3323 56.0336C98.4966 56.3248 98.5696 56.6342 98.5696 57.0163C98.5696 57.6169 98.3323 58.1083 97.876 58.4722C97.4014 58.8362 96.7807 59 95.9593 59C95.1379 59 94.9554 58.8908 94.499 58.7088C94.0427 58.5268 93.6959 58.2357 93.4586 57.8899C93.2213 57.5441 93.0935 57.1437 93.0935 56.6888H94.3713C94.3713 57.1073 94.499 57.4349 94.7911 57.6351C95.0649 57.8717 95.4482 57.9809 95.9593 57.9809C96.4704 57.9809 96.726 57.9081 96.9633 57.7079C97.1823 57.5259 97.3101 57.2893 97.3101 56.9982H97.3284L97.3466 57.0163Z" fill="white"/>
<path d="M103.078 56.1792V58.8908H101.801V51.6114H104.593C105.415 51.6114 106.054 51.8297 106.528 52.2483C107.003 52.6669 107.24 53.231 107.24 53.9408C107.24 54.6505 107.003 55.2147 106.528 55.6151C106.054 56.0154 105.378 56.2156 104.557 56.2156H103.042H103.06L103.078 56.1792ZM103.078 55.1783H104.593C105.05 55.1783 105.397 55.0691 105.634 54.8689C105.871 54.6505 105.981 54.3411 105.981 53.9408C105.981 53.5404 105.853 53.231 105.616 52.9944C105.378 52.7579 105.031 52.6487 104.63 52.6305H103.06V55.1783H103.078Z" fill="white"/>
<path d="M113.629 57.1983H110.781L110.197 58.8908H108.865L111.621 51.6114H112.771L115.527 58.8908H114.195L113.592 57.1983H113.611H113.629ZM111.165 56.1792H113.282L112.223 53.1582L111.165 56.1792Z" fill="white"/>
<path d="M121.15 56.0882H119.744V58.8908H118.466V51.6114H121.04C121.898 51.6114 122.537 51.7933 123.011 52.1755C123.468 52.5395 123.705 53.1036 123.705 53.8134C123.705 54.5231 123.596 54.7233 123.358 55.0327C123.121 55.3421 122.792 55.6151 122.373 55.797L124.015 58.8362V58.8908H122.665L121.204 56.0882H121.15ZM119.708 55.0691H121.004C121.423 55.0691 121.77 54.9599 122.008 54.7597C122.245 54.5595 122.373 54.2502 122.373 53.8862C122.373 53.5222 122.263 53.1946 122.026 52.9762C121.807 52.7579 121.46 52.6669 121.022 52.6669H119.671V55.1055H119.689L119.708 55.0691Z" fill="white"/>
<path d="M131.226 55.6333H128.214V57.8899H131.718V58.8908H126.936V51.6114H131.7V52.6487H128.214V54.6687H131.226V55.6696V55.6333Z" fill="white"/>
<path d="M140.717 56.1792V58.8908H139.44V51.6114H142.233C143.054 51.6114 143.693 51.8297 144.167 52.2483C144.642 52.6669 144.879 53.231 144.879 53.9408C144.879 54.6505 144.642 55.2147 144.167 55.6151C143.693 56.0154 143.017 56.2156 142.196 56.2156H140.681H140.699L140.717 56.1792ZM140.717 55.1783H142.233C142.689 55.1783 143.036 55.0691 143.273 54.8689C143.51 54.6505 143.62 54.3411 143.62 53.9408C143.62 53.5404 143.492 53.231 143.255 52.9944C143.017 52.7579 142.671 52.6487 142.269 52.6305H140.699V55.1783H140.717Z" fill="white"/>
<path d="M151.286 57.1983H148.439L147.854 58.8908H146.522L149.278 51.6114H150.428L153.185 58.8908H151.852L151.25 57.1983H151.268H151.286ZM148.785 56.1792H150.903L149.844 53.1582L148.785 56.1792Z" fill="white"/>
<path d="M158.789 56.0882H157.383V58.8908H156.105V51.6114H158.679C159.537 51.6114 160.176 51.7933 160.65 52.1755C161.107 52.5395 161.344 53.1036 161.344 53.8134C161.344 54.5231 161.235 54.7233 160.997 55.0327C160.76 55.3421 160.431 55.6151 160.012 55.797L161.654 58.8362V58.8908H160.304L158.843 56.0882H158.789ZM157.383 55.0691H158.679C159.099 55.0691 159.446 54.9599 159.683 54.7597C159.92 54.5413 160.048 54.2502 160.048 53.8862C160.048 53.5222 159.938 53.1946 159.701 52.9762C159.482 52.7579 159.135 52.6669 158.697 52.6669H157.346V55.1055H157.365L157.383 55.0691Z" fill="white"/>
<path d="M169.595 52.6123H167.313V58.8908H166.072V52.6123H163.808V51.575H169.595V52.6123Z" fill="white"/>
<path d="M176.385 57.0163C176.385 56.707 176.276 56.4522 176.038 56.2702C175.801 56.0882 175.399 55.9244 174.815 55.7424C174.231 55.5605 173.757 55.3785 173.41 55.1601C172.753 54.7415 172.406 54.2138 172.406 53.5222C172.406 52.8307 172.643 52.4667 173.118 52.0663C173.592 51.7023 174.231 51.484 174.98 51.484C175.728 51.484 175.929 51.5932 176.33 51.7751C176.732 51.9571 177.042 52.2301 177.261 52.5759C177.499 52.9217 177.608 53.322 177.608 53.7224H176.33C176.33 53.3584 176.203 53.0309 175.965 52.8125C175.728 52.5941 175.381 52.5031 174.925 52.5031C174.469 52.5031 174.176 52.5759 173.976 52.7761C173.738 52.9581 173.629 53.1946 173.629 53.5222C173.629 53.8498 173.757 54.0318 173.994 54.1774C174.231 54.3594 174.651 54.5231 175.217 54.7051C175.783 54.8689 176.257 55.0691 176.604 55.2875C176.951 55.5059 177.207 55.7424 177.371 56.0336C177.535 56.3248 177.608 56.6342 177.608 57.0163C177.608 57.6169 177.371 58.1083 176.915 58.4722C176.44 58.8362 175.819 59 174.998 59C174.176 59 173.994 58.8908 173.538 58.7088C173.081 58.5268 172.734 58.2357 172.497 57.8899C172.26 57.5441 172.132 57.1437 172.132 56.6888H173.41C173.41 57.1073 173.538 57.4349 173.83 57.6351C174.103 57.8717 174.487 57.9809 174.998 57.9809C175.509 57.9809 175.765 57.9081 176.002 57.7079C176.221 57.5259 176.349 57.2893 176.349 56.9982H176.367L176.385 57.0163Z" fill="white"/>
</g>
<defs>
<clipPath id="clip0_1_1641">
<rect width="194" height="59" fill="white"/>
</clipPath>
</defs>
</svg>
