<svg width="16" height="13" viewBox="0 0 16 13" fill="none" xmlns="http://www.w3.org/2000/svg">
<path d="M1.52941 12.2353C1.10882 12.2353 0.748775 12.0855 0.449265 11.786C0.149755 11.4865 0 11.1265 0 10.7059V1.52941C0 1.10882 0.149755 0.748775 0.449265 0.449265C0.748775 0.149755 1.10882 0 1.52941 0H13.7647C14.1853 0 14.5453 0.149755 14.8449 0.449265C15.1444 0.748775 15.2941 1.10882 15.2941 1.52941V10.7059C15.2941 11.1265 15.1444 11.4865 14.8449 11.786C14.5453 12.0855 14.1853 12.2353 13.7647 12.2353H1.52941ZM7.64706 6.88235L1.52941 3.05882V10.7059H13.7647V3.05882L7.64706 6.88235ZM7.64706 5.35294L13.7647 1.52941H1.52941L7.64706 5.35294ZM1.52941 3.05882V1.52941V10.7059V3.05882Z" fill="#ED872D"/>
</svg>
