<svg width="26" height="26" viewBox="0 0 26 26" fill="none" xmlns="http://www.w3.org/2000/svg">
<path d="M13 0C5.82055 0 0 5.82055 0 13C0 20.1795 5.82055 26 13 26C20.1795 26 26 20.1795 26 13C26 5.82055 20.1795 0 13 0ZM10.2477 6.78539C10.2512 5.6616 11.1612 4.7516 12.285 4.74805H13.714C14.8378 4.75109 15.7483 5.6616 15.7513 6.78539V13.5373C15.7483 14.6611 14.8378 15.5716 13.714 15.5746H12.285C11.1612 15.5711 10.2512 14.6611 10.2477 13.5373V6.78539ZM13.6866 18.8515V21.252H12.3134V18.8515C9.07004 18.4915 6.61324 15.7554 6.60359 12.4922C6.60664 12.1129 6.91691 11.8082 7.29625 11.8112C7.67101 11.8143 7.97367 12.1174 7.97723 12.4922C7.98637 15.2664 10.2421 17.5079 13.0163 17.4992C15.7777 17.4901 18.0141 15.2537 18.0233 12.4922C18.0233 12.1129 18.3305 11.8056 18.7098 11.8056C19.0892 11.8056 19.3964 12.1129 19.3964 12.4922C19.3868 15.7554 16.93 18.492 13.6866 18.8515Z" fill="black"/>
</svg>
