<svg width="15" height="15" viewBox="0 0 15 15" fill="none" xmlns="http://www.w3.org/2000/svg">
<path d="M14.529 10.8781V13.0653C14.5298 13.2684 14.4881 13.4694 14.4066 13.6554C14.3251 13.8414 14.2056 14.0085 14.0556 14.1457C13.9057 14.283 13.7287 14.3875 13.536 14.4526C13.3432 14.5176 13.139 14.5418 12.9364 14.5235C10.6884 14.2797 8.52908 13.5131 6.63188 12.2852C4.86678 11.1658 3.37029 9.67227 2.24867 7.91067C1.01405 6.00863 0.245722 3.84309 0.00592954 1.58948C-0.0123262 1.38786 0.0116824 1.18466 0.0764264 0.992814C0.14117 0.800965 0.245231 0.624672 0.381984 0.475159C0.518737 0.325647 0.685184 0.206191 0.87073 0.124396C1.05628 0.0426017 1.25685 0.000261328 1.45969 7.06867e-05H3.6513C4.00583 -0.00341176 4.34954 0.121886 4.61835 0.352608C4.88717 0.583331 5.06275 0.903736 5.11237 1.2541C5.20487 1.95407 5.37642 2.64136 5.62374 3.30284C5.72203 3.56379 5.7433 3.8474 5.68504 4.12006C5.62677 4.39271 5.49142 4.64298 5.295 4.84121L4.36722 5.76715C5.40718 7.59246 6.9215 9.10378 8.75043 10.1417L9.67821 9.21574C9.87683 9.01971 10.1276 8.88462 10.4008 8.82647C10.674 8.76832 10.9582 8.78955 11.2196 8.88765C11.8824 9.13448 12.5711 9.30569 13.2724 9.39801C13.6273 9.44797 13.9514 9.62636 14.1831 9.89925C14.4148 10.1721 14.5379 10.5205 14.529 10.8781Z" fill="#ED872D"/>
</svg>
