<svg width="18" height="22" viewBox="0 0 18 22" fill="none" xmlns="http://www.w3.org/2000/svg">
<path fill-rule="evenodd" clip-rule="evenodd" d="M7.38254 14.3418C7.36542 14.4018 7.34829 14.4617 7.33116 14.5131C6.52616 17.6732 6.43195 18.384 5.60125 19.8484C5.20731 20.5506 4.76199 21.2101 4.26528 21.8438C4.20534 21.9123 4.15396 22.0065 4.04263 21.9894C3.92273 21.9637 3.91417 21.8524 3.89704 21.7582C3.76002 20.799 3.69151 19.8313 3.72577 18.8636C3.76859 17.5961 3.92273 17.1679 5.54987 10.3082C5.57556 10.2055 5.54988 10.1198 5.51562 10.0256C5.12168 8.97225 5.0446 7.90177 5.38715 6.82271C6.12365 4.48477 8.77846 4.30493 9.24091 6.2318C9.52352 7.42219 8.7699 8.98938 8.18755 11.2931C7.70797 13.1943 9.95172 14.5474 11.8615 13.16C13.6256 11.8754 14.3107 8.80954 14.1823 6.62574C13.9254 2.28385 9.16384 1.35038 6.14078 2.7463C2.68097 4.34775 1.89309 8.63826 3.45172 10.5994C3.64869 10.8477 3.80284 11.0019 3.73433 11.2502C3.63156 11.6442 3.54592 12.0381 3.43459 12.4321C3.35751 12.7232 3.10916 12.826 2.81798 12.7061C2.2442 12.4749 1.76463 12.1066 1.3707 11.6271C0.0432909 9.98279 -0.333523 6.72851 1.42208 3.9795C3.36608 0.930751 6.98004 -0.30245 10.2857 0.0743617C14.2337 0.519684 16.7258 3.21731 17.1882 6.27462C17.4023 7.67054 17.2482 11.1047 15.2956 13.5282C13.0433 16.3201 9.40362 16.4999 7.71654 14.7871C7.58808 14.6587 7.48531 14.5045 7.35685 14.3418H7.38254Z" fill="#ED872D"/>
</svg>
