<svg width="49" height="32" viewBox="0 0 49 32" fill="none" xmlns="http://www.w3.org/2000/svg">
<path d="M33.75 27.25L25.875 19.375C25.25 19.875 24.5312 20.2708 23.7188 20.5625C22.9062 20.8542 22.0417 21 21.125 21C18.8542 21 16.9323 20.2135 15.3594 18.6406C13.7865 17.0677 13 15.1458 13 12.875C13 10.6042 13.7865 8.68229 15.3594 7.10938C16.9323 5.53646 18.8542 4.75 21.125 4.75C23.3958 4.75 25.3177 5.53646 26.8906 7.10938C28.4635 8.68229 29.25 10.6042 29.25 12.875C29.25 13.7917 29.1042 14.6562 28.8125 15.4688C28.5208 16.2812 28.125 17 27.625 17.625L35.5 25.5L33.75 27.25ZM21.125 18.5C22.6875 18.5 24.0156 17.9531 25.1094 16.8594C26.2031 15.7656 26.75 14.4375 26.75 12.875C26.75 11.3125 26.2031 9.98438 25.1094 8.89062C24.0156 7.79688 22.6875 7.25 21.125 7.25C19.5625 7.25 18.2344 7.79688 17.1406 8.89062C16.0469 9.98438 15.5 11.3125 15.5 12.875C15.5 14.4375 16.0469 15.7656 17.1406 16.8594C18.2344 17.9531 19.5625 18.5 21.125 18.5Z" fill="black"/>
</svg>
