<svg width="21" height="24" viewBox="0 0 21 24" fill="none" xmlns="http://www.w3.org/2000/svg">
<path d="M20.5304 9.81626C20.342 9.83339 20.1536 9.84196 19.9652 9.84196C17.9013 9.84196 15.9658 8.79716 14.8354 7.06725V16.5047C14.8354 20.3584 11.7096 23.4842 7.8558 23.4842C4.00205 23.4842 0.876221 20.3584 0.876221 16.5047C0.876221 12.6509 4.00205 9.52509 7.8558 9.52509C8.00139 9.52509 8.14697 9.54222 8.28399 9.55078V12.9849C8.13841 12.9678 8.00139 12.9421 7.8558 12.9421C5.8861 12.9421 4.29322 14.535 4.29322 16.5047C4.29322 18.4744 5.8861 20.0673 7.8558 20.0673C9.8255 20.0673 11.5554 18.5172 11.5554 16.5475L11.5897 0.515869H14.8782C15.1865 3.46185 17.5673 5.76554 20.5218 5.9882V9.8077L20.5304 9.81626Z" fill="#ED872D"/>
</svg>
