<svg width="65" height="64" viewBox="0 0 65 64" fill="none" xmlns="http://www.w3.org/2000/svg">
<g clip-path="url(#clip0_14_564)">
<path d="M36.8941 64C52.4395 64 65.0415 51.2837 65.0415 35.5974C65.0415 19.911 52.4395 7.19476 36.8941 7.19476C21.3488 7.19476 8.74683 19.911 8.74683 35.5974C8.74683 51.2837 21.3488 64 36.8941 64Z" fill="black"/>
<path d="M27.028 26.9804H24.8724V20.7059H22.9241V18.949H28.9764V20.7059H27.028V26.9804Z" fill="#ED872D"/>
<path d="M30.22 26.9804V18.949H32.3756V26.9804H30.22Z" fill="#ED872D"/>
<path d="M37.6817 26.9804L36.0649 21.2079H36.0235C36.1064 22.2118 36.1479 22.9647 36.1479 23.5085V26.9804H34.241V18.949H37.1013L38.7595 24.6379H38.8009L40.4176 18.949H43.278V26.9804H41.2882V23.4667C41.2882 23.2994 41.2882 23.0902 41.2882 22.8392C41.2882 22.6301 41.2882 22.0863 41.3711 21.2079H41.3296L39.7129 26.9804H37.6817Z" fill="#ED872D"/>
<path d="M51.9005 26.9804H49.7449V23.7177H47.2577V26.9804H45.1021V18.949H47.2577V21.919H49.7449V18.949H51.9005V26.9804Z" fill="#ED872D"/>
<path d="M48.0037 44.2981C48.0037 42.4575 46.387 41.8301 44.4801 41.8301H43.195L42.1587 47.1007C42.6561 47.1425 43.1536 47.1843 43.7339 47.1843C45.9725 47.1843 48.0037 46.3477 48.0037 44.2981Z" fill="white"/>
<path d="M53.8073 33.0876L50.4495 32.4183C50.6153 32.5019 50.8226 32.5856 50.9884 32.6693C52.2734 33.2967 53.1854 34.4679 53.1854 36.0157C53.1854 38.3163 51.2371 39.7804 49.2473 40.366V40.4496C51.2371 40.9934 52.3564 42.4575 52.3564 44.4653C52.3564 46.4732 51.2371 47.8536 49.7447 48.8157C48.5011 49.6104 46.7601 50.0287 44.563 50.1961L50.2422 51.2418C51.4029 51.451 52.3149 50.6562 52.4807 49.6523L55.3411 35.1372C55.5483 34.1333 54.968 33.213 53.8073 33.0039V33.0876Z" fill="white"/>
<path d="M44.6459 34.9281L43.7754 39.1948H45.1434C47.4234 39.1948 48.9572 38.2327 48.9572 36.685C48.9572 35.1373 47.7964 34.7608 46.2212 34.7608C44.6459 34.7608 44.9361 34.8445 44.6045 34.9281H44.6459Z" fill="white"/>
<path d="M35.609 47.1007H34.8214L37.2672 45.3438C40.5835 42.9595 43.6096 40.4497 43.6096 36.8105C43.6096 33.1712 41.5784 32 37.7646 32C33.9508 32 33.4949 32.6693 31.9611 33.5059L32.7901 36.3085C33.785 35.7229 35.0701 35.2627 36.7283 35.2627C38.3864 35.2627 39.2984 36.1412 39.2984 37.3961C39.2984 39.5294 36.8941 41.5791 33.1218 44.4654L29.1007 47.3935L28.6033 49.9451H41.3711L42.0758 47.017H35.5261L35.609 47.1007Z" fill="white"/>
<path d="M30.8419 44.2981C30.8419 42.4575 29.2251 41.8301 27.3183 41.8301H26.0332L24.9968 47.1007C25.4943 47.1425 25.9917 47.1843 26.5721 47.1843C28.8106 47.1843 30.8419 46.3477 30.8419 44.2981Z" fill="white"/>
<path d="M27.5253 34.9281L26.6548 39.1948H28.0228C30.3027 39.1948 31.8365 38.2327 31.8365 36.685C31.8365 35.1373 30.6758 34.7608 29.1006 34.7608C27.5253 34.7608 27.8155 34.8445 27.4839 34.9281H27.5253Z" fill="white"/>
<path d="M29.2665 31.749L23.6287 30.7451C22.468 30.536 21.4731 31.1634 21.2658 32.1673L20.644 35.4301L19.4004 41.7883L18.4055 46.9752C18.4055 47.8954 19.0273 48.7739 20.0637 48.9412L20.5611 49.0249L23.9189 32.1255C25.2869 31.8745 27.0694 31.7072 29.0178 31.7072C30.9661 31.7072 29.1836 31.7072 29.2665 31.7072V31.749Z" fill="white"/>
<path d="M46.1798 31.749C46.2627 31.749 46.3456 31.749 46.4285 31.749L40.7907 30.7451C39.9202 30.5778 39.1326 30.9124 38.718 31.498C39.63 31.5817 40.4591 31.7909 41.2053 32.1255C42.5732 31.8745 44.3143 31.7072 46.1798 31.7072V31.749Z" fill="white"/>
<path d="M10.4052 34.7189L10.1979 32.8784L10.0735 32.7529C9.94919 32.8784 9.74192 32.9621 9.53465 33.0039H9.45174C9.24447 33.0039 9.0372 33.0039 8.87138 32.9202L9.07865 34.8026C8.41539 35.0954 8.00085 35.8065 8.08375 36.5595L11.483 36.183C11.4415 35.5137 10.9855 34.9699 10.3637 34.7608" fill="#ED872D"/>
<path d="M14.592 34.1751L14.3847 32.2928C14.2189 32.4183 14.0531 32.5019 13.8458 32.5019H13.8044C13.5971 32.5019 13.3898 32.5019 13.224 32.3764L13.0996 32.5019L13.3069 34.3425C12.768 34.6771 12.4778 35.3046 12.5193 35.9738L15.9185 35.5974C15.8356 34.8444 15.2967 34.2588 14.592 34.0915" fill="#ED872D"/>
<path d="M8.58105 29.6157L8.70542 30.9542C8.82978 30.8287 9.03705 30.7869 9.20287 30.7451C9.49304 30.7032 9.78322 30.7451 10.0319 30.9542L9.82468 29.4902L8.58105 29.6157Z" fill="#ED872D"/>
<path d="M12.8923 29.1555L12.9752 30.6196C13.1825 30.4104 13.4312 30.285 13.7629 30.2431C13.9287 30.2431 14.136 30.2431 14.3018 30.3268L14.1774 28.9882L12.9338 29.1137L12.8923 29.1555Z" fill="#ED872D"/>
<path d="M8.82973 22.2117L6.5083 22.4209L6.71557 23.7595L7.66902 29.281L14.882 28.5281L14.6333 22.9229L14.5918 21.5843L12.2704 21.8353L8.82973 22.2117Z" fill="#ED872D"/>
<path d="M6.59133 11.8797C6.67424 12.5072 6.21824 13.051 5.59643 13.0928C4.97462 13.1765 4.43572 12.7163 4.39426 12.0889C4.31136 11.4614 4.76735 10.9176 5.38916 10.8758C6.01097 10.7921 6.54988 11.2523 6.59133 11.8797Z" fill="#ED872D"/>
<path d="M14.5506 11.0013C14.6335 11.6288 14.1775 12.1725 13.5557 12.2144C12.9339 12.298 12.3949 11.8379 12.3535 11.2105C12.2706 10.583 12.7266 10.0392 13.3484 9.99738C13.9702 9.91372 14.5091 10.3739 14.5506 11.0013Z" fill="#ED872D"/>
<path d="M16.7061 5.52155L13.4312 5.85619C12.9338 5.3124 11.5243 4.97776 9.82471 4.97776H8.91272C8.91272 5.01959 8.664 5.06142 8.664 5.06142C8.24946 4.09933 6.79856 1.21306 4.18696 0.752927C3.89678 0.250966 3.31642 -0.0418446 2.69461 -1.45272e-05C1.86553 0.0836456 1.24372 0.836587 1.32663 1.67319C1.40953 2.50979 2.15571 3.13724 2.98479 3.05358C3.68951 2.96992 4.22841 2.42613 4.31132 1.75685C6.09384 2.30064 7.25456 4.30848 7.6691 5.22874C6.01094 5.56338 4.68441 6.19083 4.31132 6.86012L1.0779 7.19476C-2.11406 7.5294 2.52879 21.1242 2.52879 21.1242L18.0741 19.4928C18.0741 19.4928 19.8151 5.22874 16.6232 5.56338M3.02624 12.2562C2.90188 10.9176 3.85532 9.70456 5.18185 9.53724C6.54984 9.41175 7.75201 10.3738 7.87637 11.7542C8.00073 13.0928 7.04729 14.3477 5.6793 14.4732C4.35277 14.5987 3.1506 13.6366 2.98479 12.2562M12.9752 17.5268L7.25456 18.1124L7.04729 16.2719L12.768 15.6444L12.9752 17.485V17.5268ZM13.6799 13.5948C12.3534 13.7202 11.1098 12.7582 10.9854 11.3778C10.8611 10.0392 11.8145 8.7843 13.1825 8.65881C14.509 8.53332 15.7112 9.49541 15.877 10.8758C16.0014 12.2144 15.0479 13.4693 13.6799 13.5948Z" fill="#ED872D"/>
<path d="M18.5716 28.6118C18.5716 28.6118 18.5716 28.6118 18.5716 28.5699C18.5716 28.5699 18.5716 28.5699 18.5716 28.4863C18.5716 28.1516 18.24 27.9006 17.9084 27.9425H17.8255L17.6182 25.8091C17.4524 25.9765 17.2451 26.0601 16.9964 26.102H16.9549C16.7477 26.102 16.5404 26.102 16.3746 25.9765H16.3331C16.3331 26.0183 16.5404 28.1098 16.5404 28.1098H16.4575C16.1259 28.1516 15.8771 28.4444 15.9186 28.7791C15.9186 28.8209 15.9186 28.8627 15.9186 28.9046L16.0015 29.6157C16.0015 29.8667 16.2917 30.0758 16.5404 30.0758C16.7891 30.0758 16.9964 29.783 16.9549 29.532V29.281L17.7011 29.1974V29.4484C17.7426 29.6993 17.9913 29.9085 18.24 29.8667C18.4887 29.8667 18.696 29.6157 18.6546 29.3229L18.5716 28.5699V28.6118Z" fill="#ED872D"/>
<path d="M15.0065 23.0902C15.2967 23.2993 15.7112 23.7176 15.9599 24.2196C16.1672 23.9686 16.4574 23.8013 16.789 23.8013C16.9548 23.8013 17.1206 23.8013 17.245 23.8849C16.789 22.7974 15.7527 21.8353 14.9236 21.5843L15.0065 23.0902Z" fill="#ED872D"/>
<path d="M17.5352 24.847C17.5352 25.2653 17.2864 25.6 16.8719 25.6418C16.4573 25.6418 16.1257 25.3908 16.0843 24.9725C16.0428 24.5542 16.333 24.2196 16.7475 24.1777C17.1621 24.1359 17.4937 24.4287 17.5352 24.847Z" fill="#ED872D"/>
<path d="M6.13531 22.5046C5.38914 22.9229 4.56005 24.0941 4.35278 25.2654C4.47715 25.1817 4.64296 25.098 4.80878 25.098C5.14041 25.0562 5.47204 25.098 5.72077 25.349C5.84513 24.8052 6.13531 24.3033 6.42549 24.0523L6.17676 22.5464L6.13531 22.5046Z" fill="#ED872D"/>
<path d="M4.10403 30.8706C4.10403 31.1216 4.35275 31.3307 4.64293 31.2889C4.89166 31.2889 5.09893 31.0379 5.05747 30.7451V30.4941L5.80365 30.4104V30.6614C5.8451 30.9124 6.09383 31.1216 6.384 31.1216C6.63273 31.1216 6.84 30.8287 6.79855 30.5778L6.71564 29.8667C6.71564 29.8667 6.71564 29.783 6.71564 29.7412C6.71564 29.4065 6.384 29.1555 6.05237 29.1974H5.96946L5.76219 27.1477H5.72074C5.55492 27.2314 5.38911 27.315 5.18184 27.3569H5.14038C4.89166 27.3569 4.64293 27.3569 4.43566 27.2314L4.64293 29.4065H4.56002C4.22839 29.4484 3.97967 29.7412 4.02112 30.0758C4.02112 30.0758 4.02112 30.1176 4.02112 30.1595V30.2013L4.10403 30.9542V30.8706Z" fill="#ED872D"/>
<path d="M5.7207 26.102C5.76215 26.5203 5.47198 26.8549 5.05743 26.8967C4.64289 26.9386 4.31126 26.6458 4.26981 26.2275C4.22835 25.8091 4.51853 25.4745 4.93307 25.4327C5.34761 25.4327 5.67925 25.6837 5.7207 26.102Z" fill="#ED872D"/>
<path d="M10.0735 31.7908C10.0735 32.2091 9.82476 32.5438 9.41022 32.5856C8.99568 32.5856 8.66404 32.3346 8.62259 31.9163C8.58114 31.498 8.87132 31.1634 9.28586 31.1215C9.7004 31.0797 10.032 31.3725 10.0735 31.7908Z" fill="#ED872D"/>
<path d="M14.4675 31.3307C14.5089 31.749 14.2188 32.0837 13.8042 32.1255C13.3897 32.1255 13.0581 31.8745 13.0166 31.4562C13.0166 31.0379 13.2653 30.7033 13.6799 30.6614C14.0944 30.6614 14.426 30.9124 14.4675 31.3307Z" fill="#ED872D"/>
</g>
<defs>
<clipPath id="clip0_14_564">
<rect width="65" height="64" fill="white"/>
</clipPath>
</defs>
</svg>
